<svg xmlns="http://www.w3.org/2000/svg" viewBox="0 0 260 90"><defs><style>.cls-1{fill:#000b8c;}.cls-2{fill:#e74f3d;}</style></defs><title>logo-v2</title><g id="Textos"><path class="cls-1" d="M16.71,18.92a1,1,0,0,1,.24.67.85.85,0,0,1-.92.91,1,1,0,0,1-.79-.41l-2.68-3.47H9.86v2.9a.87.87,0,0,1-.91,1,.87.87,0,0,1-.92-1V11.07a.91.91,0,0,1,1-1h4.36c2.26,0,3.48,1.09,3.48,3.15a2.88,2.88,0,0,1-2.19,3.12v0Zm-3.52-4c1.17,0,1.79-.57,1.79-1.59s-.62-1.58-1.79-1.58H9.86v3.17Z"/><path class="cls-1" d="M22.32,20.6a3.75,3.75,0,0,1-4-3.87,3.73,3.73,0,0,1,4-3.89A3.59,3.59,0,0,1,26,16.27v.07a.94.94,0,0,1-1,1H20.07a2.13,2.13,0,0,0,2.25,1.76,2.3,2.3,0,0,0,1.78-.76.79.79,0,0,1,.63-.31.75.75,0,0,1,.81.79.85.85,0,0,1-.19.51A3.84,3.84,0,0,1,22.32,20.6ZM20.07,16h4.29a2.07,2.07,0,0,0-2.12-1.62A2.13,2.13,0,0,0,20.07,16Z"/><path class="cls-1" d="M30.76,15.9c2.39,0,3.28.72,3.28,2.31s-1.21,2.39-3.23,2.39a4.77,4.77,0,0,1-3.3-.91.8.8,0,0,1-.26-.59.76.76,0,0,1,.77-.82.85.85,0,0,1,.49.17,3.4,3.4,0,0,0,2.16.65c1,0,1.68-.34,1.68-.91s-.43-.72-1.81-.72c-2.32,0-3.22-.7-3.22-2.22s1.25-2.41,3.26-2.41a4.32,4.32,0,0,1,2.8.76.79.79,0,0,1,.34.65.75.75,0,0,1-.77.81,1,1,0,0,1-.6-.23,2.8,2.8,0,0,0-1.67-.49c-1,0-1.65.35-1.65.92S29.44,15.9,30.76,15.9Z"/><path class="cls-1" d="M40.82,19.3a2.59,2.59,0,0,1-2.49,1.3,2.68,2.68,0,0,1-2.84-3V11.4a.85.85,0,1,1,1.7,0V13h2.56a.78.78,0,1,1,0,1.56H37.19v3.08c0,.88.46,1.37,1.21,1.37a1.24,1.24,0,0,0,1.1-.6.77.77,0,0,1,1.43.41A.91.91,0,0,1,40.82,19.3Z"/><path class="cls-1" d="M45.88,12.84a3.74,3.74,0,0,1,4,3.89,3.74,3.74,0,0,1-4,3.87,3.72,3.72,0,0,1-4-3.87A3.73,3.73,0,0,1,45.88,12.84Zm0,6.2a2.15,2.15,0,0,0,2.23-2.31,2.24,2.24,0,1,0-4.47,0A2.17,2.17,0,0,0,45.88,19Z"/><path class="cls-1" d="M59.59,15.45a.85.85,0,1,1,0,1.69H56.11a.85.85,0,1,1,0-1.69Z"/><path class="cls-1" d="M73.77,15.19a2.3,2.3,0,0,1,1.62,2.37c0,1.94-1.08,2.85-3.41,2.85H67.22a.91.91,0,0,1-1-1V11.07a.9.9,0,0,1,1-1h4.47c2.31,0,3.41.89,3.41,2.82a2.3,2.3,0,0,1-1.33,2.25Zm-2.16-.79c1.08,0,1.64-.42,1.64-1.31s-.56-1.32-1.64-1.32H68.07V14.4Zm.27,4.33c1.08,0,1.63-.45,1.63-1.36s-.55-1.32-1.63-1.32H68.07v2.68Z"/><path class="cls-1" d="M84.62,13.85v5.74a.85.85,0,1,1-1.69,0v-.07h0a3.19,3.19,0,0,1-2.56,1.08,3.53,3.53,0,0,1-3.61-3.87c0-2.34,1.43-3.89,3.61-3.89a3.19,3.19,0,0,1,2.56,1.08h0v-.07a.85.85,0,1,1,1.69,0Zm-1.69,2.88a2.2,2.2,0,0,0-2.25-2.33,2.17,2.17,0,0,0-2.22,2.33A2.16,2.16,0,0,0,80.68,19,2.19,2.19,0,0,0,82.93,16.73Z"/><path class="cls-1" d="M91.57,13.74a.8.8,0,0,1-.85.85c-1.48,0-2.34.78-2.34,2.58v2.42a.85.85,0,1,1-1.69,0V13.85a.85.85,0,1,1,1.69,0v.27h0a2.49,2.49,0,0,1,2.31-1.23A.79.79,0,0,1,91.57,13.74Z"/><path class="cls-2" d="M38,49h4.84c-1.16,8.66-8.59,14.57-17.5,14.57a17.67,17.67,0,1,1,0-35.33c8.91,0,16.34,5.91,17.5,14.5H38c-1.17-5.94-6.4-9.72-12.66-9.72a12.89,12.89,0,1,0,0,25.77C31.63,58.83,36.86,55.05,38,49Z"/><path class="cls-2" d="M25.37,63.87a17.93,17.93,0,1,1,0-35.85,18.64,18.64,0,0,1,11.82,4.09,16.6,16.6,0,0,1,5.94,10.64l0,.29H37.82l0-.21c-1.11-5.69-6.1-9.51-12.4-9.51a12.63,12.63,0,1,0,0,25.25c6.31,0,11.3-3.85,12.4-9.58l0-.21h5.35l0,.29a16.69,16.69,0,0,1-5.94,10.7A18.65,18.65,0,0,1,25.37,63.87Zm0-35.33a17.41,17.41,0,1,0,0,34.81c8.77,0,16-5.89,17.2-14.05H38.24c-1.24,5.86-6.38,9.79-12.87,9.79a13.15,13.15,0,1,1,0-26.29c6.48,0,11.63,3.9,12.87,9.73h4.33C41.33,34.4,34.14,28.54,25.37,28.54Z"/><path class="cls-2" d="M51,75.83H46.23V35.68H51v11A17.68,17.68,0,0,1,81.56,58.78v17H76.78v-17a12.89,12.89,0,1,0-25.77,0Z"/><path class="cls-2" d="M81.82,76.09h-5.3V58.78a12.63,12.63,0,1,0-25.26,0V76.09H46V35.42h5.29V46A17.95,17.95,0,0,1,81.82,58.78ZM77,75.58H81.3V58.78a17.43,17.43,0,0,0-30.11-12l-.44.47V35.93H46.48V75.58h4.27V58.78a13.15,13.15,0,1,1,26.29,0Z"/><rect class="cls-2" x="84.92" y="46.12" width="4.78" height="29.71"/><path class="cls-2" d="M90,76.09H84.66V45.86H90Zm-4.78-.51h4.27V46.38H85.17Z"/><path class="cls-2" d="M110.75,40.53a17.38,17.38,0,0,0-17.7,17.63A17.69,17.69,0,0,0,123.61,70.3v9.36h4.78V58.16A17.62,17.62,0,0,0,110.75,40.53Zm0,30.55a12.89,12.89,0,1,1,12.86-12.92A13,13,0,0,1,110.75,71.08Z"/><path class="cls-2" d="M128.64,79.91h-5.29v-9A17.93,17.93,0,0,1,92.8,58.16a17.74,17.74,0,0,1,5.27-12.83,18,18,0,0,1,30.57,12.83Zm-4.78-.51h4.27V58.16a17.4,17.4,0,0,0-17.38-17.38A17.23,17.23,0,0,0,93.31,58.16a17.43,17.43,0,0,0,30.11,12l.44-.47Zm-13.11-8.06a13.15,13.15,0,1,1,13.11-13.18A13.19,13.19,0,0,1,110.75,71.34Zm0-25.78a12.63,12.63,0,1,0,12.6,12.6A12.64,12.64,0,0,0,110.75,45.56Z"/><path class="cls-2" d="M131.74,41.21h4.78V58.46a12.86,12.86,0,1,0,25.71,0V41.21H167V58.59a17.64,17.64,0,0,1-35.27-.13Z"/><path class="cls-2" d="M149.38,76.41a17.94,17.94,0,0,1-17.89-17.95V41h5.29v17.5a12.6,12.6,0,1,0,25.19,0V41h5.3V58.59a17.82,17.82,0,0,1-17.89,17.82ZM132,41.47v17a17.38,17.38,0,0,0,34.75.13V41.47h-4.26v17a13.11,13.11,0,1,1-26.22,0v-17Z"/><rect class="cls-2" x="170.3" y="46.12" width="4.78" height="29.71"/><path class="cls-2" d="M175.34,76.09h-5.29V45.86h5.29Zm-4.78-.51h4.27V46.38h-4.27Z"/><path class="cls-2" d="M178.44,41.31h4.78v10h30.42v4.78H183.22v2.39a12.9,12.9,0,0,0,25.58,2.39h4.84a17.68,17.68,0,0,1-35.2-2.39Z"/><path class="cls-2" d="M196.14,76.41a18,18,0,0,1-18-17.95V41.06h5.3V51H213.9v5.3H183.48v2.13a12.64,12.64,0,0,0,25.07,2.34l0-.21h5.35l0,.29A18,18,0,0,1,196.14,76.41ZM178.7,41.57V58.46a17.42,17.42,0,0,0,34.65,2.64H209a13.16,13.16,0,0,1-26-2.64V55.81h30.43V51.55H183v-10Z"/><path class="cls-2" d="M234.7,28.28a17.67,17.67,0,1,0,12.85,29.78v5.23h4.78V45.91A17.61,17.61,0,0,0,234.7,28.28Zm0,30.55a12.89,12.89,0,1,1,12.85-12.92A13,13,0,0,1,234.7,58.83Z"/><path class="cls-2" d="M234.7,63.87a17.93,17.93,0,1,1,17.89-18V63.54h-5.3V58.69A18,18,0,0,1,234.7,63.87Zm0-35.33a17.41,17.41,0,1,0,12.66,29.34l.45-.47V63h4.26V45.91A17.39,17.39,0,0,0,234.7,28.54Zm0,30.55a13.15,13.15,0,1,1,13.11-13.18A13.19,13.19,0,0,1,234.7,59.09Zm0-25.77a12.63,12.63,0,1,0,12.59,12.59A12.64,12.64,0,0,0,234.7,33.32Z"/><path class="cls-1" d="M252.33,72.06v3.71L234.69,74a11.47,11.47,0,0,1-6.48,1.8c-3.91,0-7.21-1.59-8.27-3.78Z"/><path class="cls-1" d="M40.65,70.27V68.91H29.57a2.82,2.82,0,0,0-3,2.38L7.67,70.73v3.49l18.93-.57a2.82,2.82,0,0,0,3,2.38H40.65V74.67h-8V73.18h8V71.76h-8V70.27Z"/><path class="cls-1" d="M91.45,32.53c0,2.51-2.07,5.09-3.58,6.9a.9.9,0,0,1-.55.28h0a.83.83,0,0,1-.54-.28c-1.51-1.81-3.59-4.39-3.59-6.9a4.15,4.15,0,1,1,8.29,0Zm-1.53-.24a2.61,2.61,0,1,0-2.61,2.61A2.61,2.61,0,0,0,89.92,32.29Z"/><path class="cls-1" d="M176.84,32.53c0,2.51-2.07,5.09-3.59,6.9a.83.83,0,0,1-.54.28h0a.9.9,0,0,1-.55-.28c-1.51-1.81-3.58-4.39-3.58-6.9a4.15,4.15,0,1,1,8.29,0Zm-1.54-.24a2.61,2.61,0,1,0-2.61,2.61A2.61,2.61,0,0,0,175.3,32.29Z"/></g></svg>